<?xml version="1.0" encoding="utf-8"?>
<svg xmlns="http://www.w3.org/2000/svg" viewBox="0 0 30 30" width="480" height="480">
  <path d="M15 2.0019531C10.758 2.0019531 9 4.7229531 9 8.0019531C9 9.1059531 9.5273437 10.214844 9.5273438 10.214844C9.3153438 10.336844 8.9666875 10.724109 9.0546875 11.412109C9.2186875 12.695109 9.7749062 13.021828 10.128906 13.048828C10.263906 14.245828 11.55 15.777 12 16L12 18C11 21 3 19 3 26L14.523438 26C14.190437 25.06 14 24.054 14 23C14 19.461 16.047578 16.4085 19.017578 14.9375C19.426578 14.3675 19.801094 13.665828 19.871094 13.048828C20.225094 13.021828 20.781312 12.695109 20.945312 11.412109C21.033313 10.723109 20.684656 10.336844 20.472656 10.214844C20.472656 10.214844 21 9.2129531 21 8.0019531C21 5.5739531 20.047 3.5019531 18 3.5019531C18 3.5019531 17.289 2.0019531 15 2.0019531 z M 23 16C19.134 16 16 19.134 16 23C16 26.866 19.134 30 23 30C26.866 30 30 26.866 30 23C30 19.134 26.866 16 23 16 z M 23 19C23.552 19 24 19.447 24 20L24 22L26 22C26.552 22 27 22.447 27 23C27 23.553 26.552 24 26 24L24 24L24 26C24 26.553 23.552 27 23 27C22.448 27 22 26.553 22 26L22 24L20 24C19.448 24 19 23.553 19 23C19 22.447 19.448 22 20 22L22 22L22 20C22 19.447 22.448 19 23 19 z" fill="#0090FF" />
</svg>