<?xml version="1.0" encoding="utf-8"?>
<svg xmlns="http://www.w3.org/2000/svg" viewBox="0 0 30 30" fill="#0090ff"><path d="M 6 4 C 4.895 4 4 4.895 4 6 L 4 20 C 4 21.105 4.895 22 6 22 L 16 22 C 17.105 22 18 21.105 18 20 L 18 9.9140625 C 18 9.3840625 17.789062 8.875 17.414062 8.5 L 13.5 4.5859375 C 13.125 4.2109375 12.615938 4 12.085938 4 L 6 4 z M 12 5.9042969 L 16.095703 10 L 12 10 L 12 5.9042969 z M 20.984375 8.9863281 A 1.0001 1.0001 0 0 0 20 10 L 20 24 L 11 24 A 1.0001 1.0001 0 1 0 11 26 L 20 26 C 21.093063 26 22 25.093063 22 24 L 22 10 A 1.0001 1.0001 0 0 0 20.984375 8.9863281 z M 24.984375 8.9863281 A 1.0001 1.0001 0 0 0 24 10 L 24 25 A 1.0001 1.0001 0 1 0 26 25 L 26 10 A 1.0001 1.0001 0 0 0 24.984375 8.9863281 z" fill="#0090ff"/></svg>
